<svg xmlns="http://www.w3.org/2000/svg" viewBox="0 0 766 524" role="img" aria-labelledby="title desc">
<title id="title">Open BOS 70-view grid</title>
<desc id="desc">Ten rotation groups by seven cameras with reference, deflected, processed field, and mask availability.</desc>
<style>
text{font-family:-apple-system,BlinkMacSystemFont,'Segoe UI',sans-serif;fill:#1f2a2e}
.title{font-size:22px;font-weight:700}.sub{font-size:13px;fill:#59676d}.hdr{font-size:12px;font-weight:700}.row{font-size:12px;font-weight:650}.tiny{font-size:11px;fill:#59676d}.celltxt{font-size:10px;font-weight:750;fill:#fff}
</style>
<rect x="0" y="0" width="766" height="524" rx="18" fill="#f7faf9"/>
<text x="32" y="38" class="title">Open BOS flow-view grid</text>
<text x="32" y="60" class="sub">10 ROT groups x 7 cameras = 70 REF/DEF image-pair views; processed fields and masks are rotation-level assets.</text>
<text x="167.0" y="70" class="hdr" text-anchor="middle">cam_01</text>
<text x="245.0" y="70" class="hdr" text-anchor="middle">cam_02</text>
<text x="323.0" y="70" class="hdr" text-anchor="middle">cam_03</text>
<text x="401.0" y="70" class="hdr" text-anchor="middle">cam_04</text>
<text x="479.0" y="70" class="hdr" text-anchor="middle">cam_05</text>
<text x="557.0" y="70" class="hdr" text-anchor="middle">cam_06</text>
<text x="635.0" y="70" class="hdr" text-anchor="middle">cam_07</text>
<text x="110" y="109" class="row" text-anchor="end">ROT_000</text>
<rect x="132" y="92" width="70" height="24" rx="6" fill="#2f9e73"/>
<text x="167.0" y="111" class="celltxt" text-anchor="middle">R+D</text>
<rect x="210" y="92" width="70" height="24" rx="6" fill="#2f9e73"/>
<text x="245.0" y="111" class="celltxt" text-anchor="middle">R+D</text>
<rect x="288" y="92" width="70" height="24" rx="6" fill="#2f9e73"/>
<text x="323.0" y="111" class="celltxt" text-anchor="middle">R+D</text>
<rect x="366" y="92" width="70" height="24" rx="6" fill="#2f9e73"/>
<text x="401.0" y="111" class="celltxt" text-anchor="middle">R+D</text>
<rect x="444" y="92" width="70" height="24" rx="6" fill="#2f9e73"/>
<text x="479.0" y="111" class="celltxt" text-anchor="middle">R+D</text>
<rect x="522" y="92" width="70" height="24" rx="6" fill="#2f9e73"/>
<text x="557.0" y="111" class="celltxt" text-anchor="middle">R+D</text>
<rect x="600" y="92" width="70" height="24" rx="6" fill="#2f9e73"/>
<text x="635.0" y="111" class="celltxt" text-anchor="middle">R+D</text>
<text x="110" y="141" class="row" text-anchor="end">ROT_010</text>
<rect x="132" y="124" width="70" height="24" rx="6" fill="#2f9e73"/>
<text x="167.0" y="143" class="celltxt" text-anchor="middle">R+D</text>
<rect x="210" y="124" width="70" height="24" rx="6" fill="#2f9e73"/>
<text x="245.0" y="143" class="celltxt" text-anchor="middle">R+D</text>
<rect x="288" y="124" width="70" height="24" rx="6" fill="#2f9e73"/>
<text x="323.0" y="143" class="celltxt" text-anchor="middle">R+D</text>
<rect x="366" y="124" width="70" height="24" rx="6" fill="#2f9e73"/>
<text x="401.0" y="143" class="celltxt" text-anchor="middle">R+D</text>
<rect x="444" y="124" width="70" height="24" rx="6" fill="#2f9e73"/>
<text x="479.0" y="143" class="celltxt" text-anchor="middle">R+D</text>
<rect x="522" y="124" width="70" height="24" rx="6" fill="#2f9e73"/>
<text x="557.0" y="143" class="celltxt" text-anchor="middle">R+D</text>
<rect x="600" y="124" width="70" height="24" rx="6" fill="#2f9e73"/>
<text x="635.0" y="143" class="celltxt" text-anchor="middle">R+D</text>
<text x="110" y="173" class="row" text-anchor="end">ROT_020</text>
<rect x="132" y="156" width="70" height="24" rx="6" fill="#2f9e73"/>
<text x="167.0" y="175" class="celltxt" text-anchor="middle">R+D</text>
<rect x="210" y="156" width="70" height="24" rx="6" fill="#2f9e73"/>
<text x="245.0" y="175" class="celltxt" text-anchor="middle">R+D</text>
<rect x="288" y="156" width="70" height="24" rx="6" fill="#2f9e73"/>
<text x="323.0" y="175" class="celltxt" text-anchor="middle">R+D</text>
<rect x="366" y="156" width="70" height="24" rx="6" fill="#2f9e73"/>
<text x="401.0" y="175" class="celltxt" text-anchor="middle">R+D</text>
<rect x="444" y="156" width="70" height="24" rx="6" fill="#2f9e73"/>
<text x="479.0" y="175" class="celltxt" text-anchor="middle">R+D</text>
<rect x="522" y="156" width="70" height="24" rx="6" fill="#2f9e73"/>
<text x="557.0" y="175" class="celltxt" text-anchor="middle">R+D</text>
<rect x="600" y="156" width="70" height="24" rx="6" fill="#2f9e73"/>
<text x="635.0" y="175" class="celltxt" text-anchor="middle">R+D</text>
<text x="110" y="205" class="row" text-anchor="end">ROT_030</text>
<rect x="132" y="188" width="70" height="24" rx="6" fill="#2f9e73"/>
<text x="167.0" y="207" class="celltxt" text-anchor="middle">R+D</text>
<rect x="210" y="188" width="70" height="24" rx="6" fill="#2f9e73"/>
<text x="245.0" y="207" class="celltxt" text-anchor="middle">R+D</text>
<rect x="288" y="188" width="70" height="24" rx="6" fill="#2f9e73"/>
<text x="323.0" y="207" class="celltxt" text-anchor="middle">R+D</text>
<rect x="366" y="188" width="70" height="24" rx="6" fill="#2f9e73"/>
<text x="401.0" y="207" class="celltxt" text-anchor="middle">R+D</text>
<rect x="444" y="188" width="70" height="24" rx="6" fill="#2f9e73"/>
<text x="479.0" y="207" class="celltxt" text-anchor="middle">R+D</text>
<rect x="522" y="188" width="70" height="24" rx="6" fill="#2f9e73"/>
<text x="557.0" y="207" class="celltxt" text-anchor="middle">R+D</text>
<rect x="600" y="188" width="70" height="24" rx="6" fill="#2f9e73"/>
<text x="635.0" y="207" class="celltxt" text-anchor="middle">R+D</text>
<text x="110" y="237" class="row" text-anchor="end">ROT_040</text>
<rect x="132" y="220" width="70" height="24" rx="6" fill="#2f9e73"/>
<text x="167.0" y="239" class="celltxt" text-anchor="middle">R+D</text>
<rect x="210" y="220" width="70" height="24" rx="6" fill="#2f9e73"/>
<text x="245.0" y="239" class="celltxt" text-anchor="middle">R+D</text>
<rect x="288" y="220" width="70" height="24" rx="6" fill="#2f9e73"/>
<text x="323.0" y="239" class="celltxt" text-anchor="middle">R+D</text>
<rect x="366" y="220" width="70" height="24" rx="6" fill="#2f9e73"/>
<text x="401.0" y="239" class="celltxt" text-anchor="middle">R+D</text>
<rect x="444" y="220" width="70" height="24" rx="6" fill="#2f9e73"/>
<text x="479.0" y="239" class="celltxt" text-anchor="middle">R+D</text>
<rect x="522" y="220" width="70" height="24" rx="6" fill="#2f9e73"/>
<text x="557.0" y="239" class="celltxt" text-anchor="middle">R+D</text>
<rect x="600" y="220" width="70" height="24" rx="6" fill="#2f9e73"/>
<text x="635.0" y="239" class="celltxt" text-anchor="middle">R+D</text>
<text x="110" y="269" class="row" text-anchor="end">ROT_050</text>
<rect x="132" y="252" width="70" height="24" rx="6" fill="#2f9e73"/>
<text x="167.0" y="271" class="celltxt" text-anchor="middle">R+D</text>
<rect x="210" y="252" width="70" height="24" rx="6" fill="#2f9e73"/>
<text x="245.0" y="271" class="celltxt" text-anchor="middle">R+D</text>
<rect x="288" y="252" width="70" height="24" rx="6" fill="#2f9e73"/>
<text x="323.0" y="271" class="celltxt" text-anchor="middle">R+D</text>
<rect x="366" y="252" width="70" height="24" rx="6" fill="#2f9e73"/>
<text x="401.0" y="271" class="celltxt" text-anchor="middle">R+D</text>
<rect x="444" y="252" width="70" height="24" rx="6" fill="#2f9e73"/>
<text x="479.0" y="271" class="celltxt" text-anchor="middle">R+D</text>
<rect x="522" y="252" width="70" height="24" rx="6" fill="#2f9e73"/>
<text x="557.0" y="271" class="celltxt" text-anchor="middle">R+D</text>
<rect x="600" y="252" width="70" height="24" rx="6" fill="#2f9e73"/>
<text x="635.0" y="271" class="celltxt" text-anchor="middle">R+D</text>
<text x="110" y="301" class="row" text-anchor="end">ROT_060</text>
<rect x="132" y="284" width="70" height="24" rx="6" fill="#2f9e73"/>
<text x="167.0" y="303" class="celltxt" text-anchor="middle">R+D</text>
<rect x="210" y="284" width="70" height="24" rx="6" fill="#2f9e73"/>
<text x="245.0" y="303" class="celltxt" text-anchor="middle">R+D</text>
<rect x="288" y="284" width="70" height="24" rx="6" fill="#2f9e73"/>
<text x="323.0" y="303" class="celltxt" text-anchor="middle">R+D</text>
<rect x="366" y="284" width="70" height="24" rx="6" fill="#2f9e73"/>
<text x="401.0" y="303" class="celltxt" text-anchor="middle">R+D</text>
<rect x="444" y="284" width="70" height="24" rx="6" fill="#2f9e73"/>
<text x="479.0" y="303" class="celltxt" text-anchor="middle">R+D</text>
<rect x="522" y="284" width="70" height="24" rx="6" fill="#2f9e73"/>
<text x="557.0" y="303" class="celltxt" text-anchor="middle">R+D</text>
<rect x="600" y="284" width="70" height="24" rx="6" fill="#2f9e73"/>
<text x="635.0" y="303" class="celltxt" text-anchor="middle">R+D</text>
<text x="110" y="333" class="row" text-anchor="end">ROT_070</text>
<rect x="132" y="316" width="70" height="24" rx="6" fill="#2f9e73"/>
<text x="167.0" y="335" class="celltxt" text-anchor="middle">R+D</text>
<rect x="210" y="316" width="70" height="24" rx="6" fill="#2f9e73"/>
<text x="245.0" y="335" class="celltxt" text-anchor="middle">R+D</text>
<rect x="288" y="316" width="70" height="24" rx="6" fill="#2f9e73"/>
<text x="323.0" y="335" class="celltxt" text-anchor="middle">R+D</text>
<rect x="366" y="316" width="70" height="24" rx="6" fill="#2f9e73"/>
<text x="401.0" y="335" class="celltxt" text-anchor="middle">R+D</text>
<rect x="444" y="316" width="70" height="24" rx="6" fill="#2f9e73"/>
<text x="479.0" y="335" class="celltxt" text-anchor="middle">R+D</text>
<rect x="522" y="316" width="70" height="24" rx="6" fill="#2f9e73"/>
<text x="557.0" y="335" class="celltxt" text-anchor="middle">R+D</text>
<rect x="600" y="316" width="70" height="24" rx="6" fill="#2f9e73"/>
<text x="635.0" y="335" class="celltxt" text-anchor="middle">R+D</text>
<text x="110" y="365" class="row" text-anchor="end">ROT_080</text>
<rect x="132" y="348" width="70" height="24" rx="6" fill="#2f9e73"/>
<text x="167.0" y="367" class="celltxt" text-anchor="middle">R+D</text>
<rect x="210" y="348" width="70" height="24" rx="6" fill="#2f9e73"/>
<text x="245.0" y="367" class="celltxt" text-anchor="middle">R+D</text>
<rect x="288" y="348" width="70" height="24" rx="6" fill="#2f9e73"/>
<text x="323.0" y="367" class="celltxt" text-anchor="middle">R+D</text>
<rect x="366" y="348" width="70" height="24" rx="6" fill="#2f9e73"/>
<text x="401.0" y="367" class="celltxt" text-anchor="middle">R+D</text>
<rect x="444" y="348" width="70" height="24" rx="6" fill="#2f9e73"/>
<text x="479.0" y="367" class="celltxt" text-anchor="middle">R+D</text>
<rect x="522" y="348" width="70" height="24" rx="6" fill="#2f9e73"/>
<text x="557.0" y="367" class="celltxt" text-anchor="middle">R+D</text>
<rect x="600" y="348" width="70" height="24" rx="6" fill="#2f9e73"/>
<text x="635.0" y="367" class="celltxt" text-anchor="middle">R+D</text>
<text x="110" y="397" class="row" text-anchor="end">ROT_090</text>
<rect x="132" y="380" width="70" height="24" rx="6" fill="#2f9e73"/>
<text x="167.0" y="399" class="celltxt" text-anchor="middle">R+D</text>
<rect x="210" y="380" width="70" height="24" rx="6" fill="#2f9e73"/>
<text x="245.0" y="399" class="celltxt" text-anchor="middle">R+D</text>
<rect x="288" y="380" width="70" height="24" rx="6" fill="#2f9e73"/>
<text x="323.0" y="399" class="celltxt" text-anchor="middle">R+D</text>
<rect x="366" y="380" width="70" height="24" rx="6" fill="#2f9e73"/>
<text x="401.0" y="399" class="celltxt" text-anchor="middle">R+D</text>
<rect x="444" y="380" width="70" height="24" rx="6" fill="#2f9e73"/>
<text x="479.0" y="399" class="celltxt" text-anchor="middle">R+D</text>
<rect x="522" y="380" width="70" height="24" rx="6" fill="#2f9e73"/>
<text x="557.0" y="399" class="celltxt" text-anchor="middle">R+D</text>
<rect x="600" y="380" width="70" height="24" rx="6" fill="#2f9e73"/>
<text x="635.0" y="399" class="celltxt" text-anchor="middle">R+D</text>
<rect x="32" y="429" width="18" height="18" rx="4" fill="#2f9e73"/>
<text x="58" y="443" class="tiny">REF+DEF + processed field/mask</text>
<rect x="32" y="451" width="18" height="18" rx="4" fill="#6cbf8f"/>
<text x="58" y="465" class="tiny">REF+DEF image pair</text>
<rect x="32" y="473" width="18" height="18" rx="4" fill="#f1b565"/>
<text x="58" y="487" class="tiny">partial</text>
</svg>
